:version 1.10
:name ASF
:units
  mass 1
  length 1
  angle deg
:documentation
  ASF file generated by Kaydara
:root
  axis xyz
  order  tx ty tz rx ry rz
  position 0 0 0
  orientation 0 0 0
:bonedata
  begin
    id 1
    name RightUpLegDummy
    direction -1 2.30186e-007 8.31532e-007
    length 4.04083
    axis 0 0 0 xyz
  end
  begin
    id 2
    name RightUpLeg
    direction -0.000919234 -0.999985 0.00544864
    length 17.4221
    axis -3.80308 -0.00076134 -0.0523649 xyz
    dof rx ry rz
  end
  begin
    id 3
    name RightLeg
    direction -0.000919271 -0.999984 -0.00555045
    length 17.1239
    axis 4.00314 0.0181274 -0.183583 xyz
    dof rx ry rz
  end
  begin
    id 4
    name RightFoot
    direction -2.57843e-005 -4.04509e-007 1
    length 6.72091
    axis 8.18909e-005 -0.122003 -0.403008 xyz
    dof rx ry rz
  end
  begin
    id 5
    name RightToes
    direction 0.00116825 -0.014069 0.9999
    length 3.85082
    axis 0.000514414 0.540638 -0.356797 xyz
    dof rx ry rz
  end
  begin
    id 6
    name SpineDummy
    direction 0.0168869 0.966876 -0.254689
    length 6.99894
    axis 0 0 0 xyz
  end
  begin
    id 7
    name Spine
    direction -0.0132008 0.999903 0.00446247
    length 11.1999
    axis -0.00148109 0.00725429 0.756411 xyz
    dof rx ry rz
  end
  begin
    id 8
    name Spine1
    direction 0 0 0
    length 0
    axis -0.000934958 0.0245693 1.46543 xyz
    dof rx ry rz
  end
  begin
    id 9
    name HEadDummy
    direction -0.0255732 0.999672 0.00128215
    length 3.43865
    axis -0.000934958 0.0245693 1.46543 xyz
  end
  begin
    id 10
    name HEad
    direction -0.0472656 0.980052 0.19304
    length 5.12695
    axis -0.000934954 0.0245693 1.46543 xyz
    dof rx ry rz
  end
  begin
    id 11
    name LeftShoulder1Dummy
    direction 0.953098 0.301717 -0.023914
    length 3.68488
    axis -0.000934958 0.0245693 1.46543 xyz
  end
  begin
    id 12
    name LeftShoulder1
    direction 0.962466 0.271167 0.0112566
    length 3.13809
    axis -0.000934958 0.0245693 1.46543 xyz
    dof rx ry rz
  end
  begin
    id 13
    name LeftArm
    direction 0.999943 0.00455037 -0.00961766
    length 11.3419
    axis -23.1648 0.685459 1.22814 xyz
    dof rx ry rz
  end
  begin
    id 14
    name LeftForeArm
    direction 0.999332 0.0131969 0.0340885
    length 8.70632
    axis -9.90633 0.618216 0.0826942 xyz
    dof rx ry rz
  end
  begin
    id 15
    name LeftHand
    direction 0.994373 -0.0366703 0.0993905
    length 5.32135
    axis 0.00675269 0.680415 0.445699 xyz
    dof rx ry rz
  end
  begin
    id 16
    name RightShoulderDummy
    direction -0.967298 0.252589 -0.0230903
    length 3.68488
    axis -0.000934958 0.0245693 1.46543 xyz
  end
  begin
    id 17
    name RightShoulder
    direction -0.975062 0.221602 0.0120823
    length 3.13809
    axis 0.216257 0.0246515 1.45863 xyz
    dof rx ry rz
  end
  begin
    id 18
    name RightArm
    direction -0.99886 -0.00851186 -0.0469687
    length 10.3947
    axis -23.196 0.23503 -0.532632 xyz
    dof rx ry rz
  end
  begin
    id 19
    name RightForeArm
    direction -0.99909 0.00114866 0.0426317
    length 8.68355
    axis -9.91764 -0.134943 0.610517 xyz
    dof rx ry rz
  end
  begin
    id 20
    name RightHand
    direction -0.992888 -0.0489538 0.10852
    length 5.28593
    axis -0.00275396 -0.197403 0.246414 xyz
    dof rx ry rz
  end
  begin
    id 21
    name LeftUpLegDummy
    direction 1 -2.30186e-007 -8.31532e-007
    length 4.04083
    axis 0 0 0 xyz
  end
  begin
    id 22
    name LeftUpLeg
    direction -0.000920097 -1 2.79241e-006
    length 17.4221
    axis -3.48782 0.00143434 -0.0532288 xyz
    dof rx ry rz
  end
  begin
    id 23
    name LeftLeg
    direction -0.000920097 -1 2.7912e-006
    length 17.1239
    axis 3.68162 -0.00806512 -0.0529896 xyz
    dof rx ry rz
  end
  begin
    id 24
    name LeftFoot
    direction -2.57845e-005 -3.987e-007 1
    length 6.72091
    axis 3.02372e-005 -0.00147829 -0.214229 xyz
    dof rx ry rz
  end
  begin
    id 25
    name LeftToes
    direction 0.00813577 -0.00488255 0.999955
    length 3.85048
    axis 3.89895e-005 -0.0014783 -0.214229 xyz
    dof rx ry rz
  end
:hierarchy
  begin
    root RightUpLegDummy SpineDummy LeftUpLegDummy
    RightUpLegDummy RightUpLeg
    RightUpLeg RightLeg
    RightLeg RightFoot
    RightFoot RightToes
    SpineDummy Spine
    Spine Spine1
    Spine1 HEadDummy LeftShoulder1Dummy RightShoulderDummy
    HEadDummy HEad
    LeftShoulder1Dummy LeftShoulder1
    LeftShoulder1 LeftArm
    LeftArm LeftForeArm
    LeftForeArm LeftHand
    RightShoulderDummy RightShoulder
    RightShoulder RightArm
    RightArm RightForeArm
    RightForeArm RightHand
    LeftUpLegDummy LeftUpLeg
    LeftUpLeg LeftLeg
    LeftLeg LeftFoot
    LeftFoot LeftToes
  end

:SAMPLES-PER-SECOND 30
:FULLY-SPECIFIED
:DEGREES
1
root  -5.35015 34.5609 -33.0026 -170.635 5.09937 -178.556
RightUpLeg  -8.82302 -17.5681 -2.10548
RightLeg  5.12903 0.92496 0.0243446
RightFoot  7.92681 0.00726966 0.285187
RightToes  -30.6715 -0.153853 -0.257969
Spine  -1.99322 -0.365462 0.361795
Spine1  -4.04882 -0.593065 1.32451
HEad  -69.6808 2.54213 7.04601
LeftShoulder1  -1.94126e-019 -3.10601e-018 -2.51263e-017
LeftArm  -20.1371 27.2187 -77.6764
LeftForeArm  34.8443 -11.32 -1.93248
LeftHand  -0.563596 -1.68093 9.42885
RightShoulder  -4.96962e-017 0 -2.36833e-017
RightArm  -33.8974 -21.92 73.5911
RightForeArm  55.5845 15.0521 1.12935
RightHand  -0.379757 -0.797004 -9.56373
LeftUpLeg  -6.74285 7.76021 6.91989
LeftLeg  5.71751 12.8398 0.45178
LeftFoot  6.79266 -0.0916031 1.65399
LeftToes  -28.0955 2.25955e-006 -3.67304e-008
2
root  -5.31558 34.5675 -32.9935 -170.579 6.07179 -178.424
RightUpLeg  -8.9773 -17.0658 -1.92428
RightLeg  4.98111 1.38004 0.0322549
RightFoot  8.11291 0.0025648 0.352406
RightToes  -30.6673 -0.153853 -0.257969
Spine  -2.00915 -0.412893 0.341186
Spine1  -4.07632 -0.682964 1.30794
HEad  -70.0842 1.39807 7.22983
LeftShoulder1  -1.94126e-019 -3.10601e-018 -2.51263e-017
LeftArm  -20.4053 27.0595 -77.7731
LeftForeArm  35.3449 -10.6065 -1.83496
LeftHand  -0.575467 -1.64633 9.66818
RightShoulder  -4.96962e-017 0 -2.36833e-017
RightArm  -32.9109 -21.9763 73.6096
RightForeArm  54.633 15.8459 1.07923
RightHand  -0.368652 -0.865763 -9.41586
LeftUpLeg  -6.48806 8.16551 7.02406
LeftLeg  5.60917 13.4681 0.448277
LeftFoot  6.89445 -0.0985384 1.76182
LeftToes  -27.6822 2.25955e-006 -3.67304e-008
3
root  -5.27633 34.5705 -32.9936 -170.55 7.06178 -178.308
RightUpLeg  -9.12802 -16.6136 -1.76819
RightLeg  4.92475 1.88918 0.0419366
RightFoot  8.20603 -0.00249573 0.424703
RightToes  -30.5074 -0.153853 -0.257969
Spine  -2.0498 -0.454731 0.316617
Spine1  -4.15718 -0.76712 1.27316
HEad  -70.5207 -0.947948 7.63201
LeftShoulder1  -1.94126e-019 -3.10601e-018 -2.51263e-017
LeftArm  -20.7785 26.9612 -77.8658
LeftForeArm  35.3635 -10.299 -1.78872
LeftHand  -0.572159 -1.54157 9.75097
RightShoulder  -4.96962e-017 0 -2.36833e-017
RightArm  -32.4085 -21.9773 73.6006
RightForeArm  54.7098 16.1326 1.06386
RightHand  -0.394134 -0.591083 -9.52267
LeftUpLeg  -6.22813 8.8161 7.12853
LeftLeg  5.53357 13.7578 0.439768
LeftFoot  6.82052 -0.0998376 1.78202
LeftToes  -27.9575 2.25955e-006 -3.67304e-008
4
root  -5.24018 34.5698 -32.9954 -170.549 8.0722 -178.221
RightUpLeg  -9.25311 -15.9458 -1.66576
RightLeg  4.8864 2.21442 0.0475098
RightFoot  8.29479 -0.00571449 0.470687
RightToes  -30.5539 -0.153853 -0.257969
Spine  -2.10013 -0.48904 0.30204
Spine1  -4.26116 -0.840779 1.24807
HEad  -71.0397 -4.87276 8.19475
LeftShoulder1  -1.94126e-019 -3.10601e-018 -2.51263e-017
LeftArm  -21.0853 26.815 -78.0268
LeftForeArm  35.2695 -10.2866 -1.78685
LeftHand  -0.570308 -1.44188 9.88221
RightShoulder  -4.96962e-017 0 -2.36833e-017
RightArm  -32.1872 -21.9462 73.5429
RightForeArm  54.9674 16.1394 1.0565
RightHand  -0.399887 -0.490996 -9.47468
LeftUpLeg  -5.92643 9.35478 7.20017
LeftLeg  5.46441 14.2124 0.437041
LeftFoot  6.84483 -0.103843 1.84429
LeftToes  -27.8262 2.25955e-006 -3.67304e-008
5
root  -5.20385 34.5695 -32.9972 -170.581 9.08034 -178.126
RightUpLeg  -9.34533 -15.1313 -1.57519
RightLeg  4.86544 2.38882 0.0503038
RightFoot  8.38515 -0.00732738 0.493728
RightToes  -30.617 -0.153853 -0.257969
Spine  -2.14633 -0.503514 0.299627
Spine1  -4.36025 -0.879677 1.23202
HEad  -71.8419 -10.3009 9.01085
LeftShoulder1  -1.94126e-019 -3.10601e-018 -2.51263e-017
LeftArm  -20.9713 26.5948 -78.207
LeftForeArm  35.2189 -10.5775 -1.83076
LeftHand  -0.574093 -1.48022 9.89671
RightShoulder  -4.96962e-017 0 -2.36833e-017
RightArm  -32.3185 -21.8967 73.4665
RightForeArm  55.5357 15.8286 1.05746
RightHand  -0.399508 -0.606744 -9.68305
LeftUpLeg  -5.59167 10.0253 7.29201
LeftLeg  5.40688 14.5419 0.432527
LeftFoot  6.82709 -0.105941 1.87692
LeftToes  -27.7308 2.25955e-006 -3.67304e-008
6
root  -5.16707 34.5738 -32.9998 -170.657 10.0235 -178.029
RightUpLeg  -9.33644 -14.4849 -1.48825
RightLeg  4.76986 2.68416 0.0519244
RightFoot  8.47152 -0.0100639 0.532821
RightToes  -30.5456 -0.153853 -0.257969
Spine  -2.1531 -0.543631 0.293612
Spine1  -4.38081 -0.974079 1.20375
HEad  -73.44 -16.8344 10.3019
LeftShoulder1  -1.94126e-019 -3.10601e-018 -2.51263e-017
LeftArm  -20.6377 26.1996 -78.4194
LeftForeArm  35.1517 -11.0717 -1.89959
LeftHand  -0.578418 -1.53512 9.86431
RightShoulder  -4.96962e-017 0 -2.36833e-017
RightArm  -32.9737 -21.6919 73.3892
RightForeArm  56.2528 15.2107 1.0981
RightHand  -0.400901 -0.629155 -9.76047
LeftUpLeg  -5.19778 10.6998 7.39908
LeftLeg  5.28508 14.8216 0.40951
LeftFoot  6.89268 -0.108999 1.92447
LeftToes  -27.7956 2.25955e-006 -3.67304e-008
